# xmcd
#
# Track frame offsets:
#	150
#	12742
#	25183
#	40108
#	50750
#	65911
#	75265
#	85174
#	101526
#	111993
#
# Disc length: 1611 seconds
#
# Revision: 0
# Processed by: cddbd v1.5.2PL0 Copyright (c) Steve Scherf et al.
# Submitted via: EasyCDDAExtractor 10.2.0.1
#
DISCID=7e06490a
DTITLE=Various Artist - Lighthouse Hits Vol. 6
DYEAR=2000
DGENRE=Gospel
TTITLE0=The Singing Echoes - Hezekiah
TTITLE1=Johnnie Masters - Gloryland March
TTITLE2=The Rochesters - He'll Do What He Said
TTITLE3=Narrow Way Quartet - Fire In My Bones
TTITLE4=The Gabbards - Rise Up
TTITLE5=Crossroads - Walking
TTITLE6=Greg Caracofe - I Still Believe
TTITLE7=The Elsner Sisters - Jesus Will Outshine Them All
TTITLE8=The Singing Doutts - Get Out Of My Garden, Devil
TTITLE9=Tim Ferrell - Faith Gets The Job Done
EXTD=
EXTT0=
EXTT1=
EXTT2=
EXTT3=
EXTT4=
EXTT5=
EXTT6=
EXTT7=
EXTT8=
EXTT9=
PLAYORDER=
